<svg xmlns="http://www.w3.org/2000/svg" width="140" height="36" viewBox="0 0 140 36">
  <defs>
    <mask id="cxBrainMask">
      <rect width="36" height="36" fill="#fff"/>
      <g fill="none" stroke="#000" stroke-width="1.5" stroke-linecap="round" transform="translate(2 2)">
        <path d="M16 6.5 Q15.2 11 16 16 Q16.8 21 16 25.6"/>
        <path d="M15.6 10.5 Q13 10.8 11.6 9.4"/>
        <path d="M15.5 16.8 Q12.4 17.4 10.6 15.8"/>
        <path d="M16.5 13 Q19.4 13.4 21 12"/>
        <path d="M16.4 20.3 Q18.8 20.8 20 19.6"/>
      </g>
    </mask>
  </defs>
  <g fill="#0c8b99" mask="url(#cxBrainMask)" transform="translate(2 2)">
    <ellipse cx="16" cy="15.5" rx="7.5" ry="8.5"/>
    <circle cx="11.8" cy="9.8" r="4.4"/><circle cx="20.2" cy="9.8" r="4.4"/>
    <circle cx="9" cy="15" r="4"/><circle cx="23" cy="15" r="4"/>
    <circle cx="10.8" cy="20.2" r="4.2"/><circle cx="21.2" cy="20.2" r="4.2"/>
    <circle cx="16" cy="22.2" r="4.4"/>
  </g>
  <text x="42" y="26" font-family="ui-sans-serif, -apple-system, 'Segoe UI', Roboto, Helvetica, Arial, sans-serif" font-size="24" font-weight="700" letter-spacing="-0.5" fill="#0c8b99">Cortex</text>
</svg>
